<svg width="1536" height="922" viewBox="0 0 1536 922" fill="none" xmlns="http://www.w3.org/2000/svg" role="img" aria-labelledby="title desc">
  <title id="title">Modhani logo</title>
  <desc id="desc">Modhani black wordmark with orange brush oval and sun mark.</desc>
  <path d="M604 336C690 245 928 221 1082 264C1247 310 1288 424 1204 525C1116 631 878 662 697 598C557 548 513 431 604 336Z" stroke="#FF8900" stroke-width="19" stroke-linecap="round" stroke-linejoin="round"/>
  <path d="M574 482C620 592 758 657 927 662C1035 665 1145 639 1229 589" stroke="#FF8900" stroke-width="21" stroke-linecap="round" opacity=".98"/>
  <path d="M1111 628C1165 624 1207 603 1235 569" stroke="#FF8900" stroke-width="16" stroke-linecap="round"/>
  <path d="M623 314C724 255 926 238 1080 273" stroke="#FF8900" stroke-width="10" stroke-linecap="round" opacity=".75"/>
  <g transform="translate(1032 245)">
    <circle cx="63" cy="63" r="35" fill="none" stroke="#FF8900" stroke-width="13"/>
    <path d="M63 10V0M63 126V116M116 63H126M0 63H10M101 25L111 15M15 111L25 101M101 101L111 111M15 15L25 25" stroke="#FF8900" stroke-width="13" stroke-linecap="round"/>
    <path d="M81 68C76 92 44 96 31 78C18 59 32 31 55 35C79 39 86 65 67 76C52 84 38 69 45 55C49 46 60 45 66 52" stroke="#FF8900" stroke-width="13" stroke-linecap="round" fill="none"/>
  </g>
  <text x="280" y="511" fill="#020202" font-family="Brush Script MT, Segoe Script, Comic Sans MS, cursive" font-size="178" font-weight="700" letter-spacing="-4">modhani</text>
</svg>
