<svg width="273" height="113" viewBox="0 0 273 113" fill="none" xmlns="http://www.w3.org/2000/svg" role="img" aria-labelledby="title desc">
  <title id="title">Modhani logo</title>
  <desc id="desc">Modhani white wordmark with orange brush oval and sun mark.</desc>
  <rect width="273" height="113" rx="0" fill="#050505"/>
  <path d="M100.4 28.4C121.9 10.9 171.2 6.8 216.7 22.4C254.2 35.3 267.5 60.2 250.4 80.4C234.8 98.8 192.7 104.8 145.1 94.9C105.8 86.7 85.9 68.1 89.9 49.6C91.7 41.5 95.1 33.9 100.4 28.4Z" stroke="#F28A1D" stroke-width="6.5" stroke-linecap="round" stroke-linejoin="round"/>
  <path d="M97 86.1C122.7 103.2 184.2 106.1 225.7 89.2" stroke="#F28A1D" stroke-width="5" stroke-linecap="round" opacity=".96"/>
  <g transform="translate(203 17)">
    <circle cx="21" cy="21" r="11" fill="none" stroke="#F28A1D" stroke-width="4"/>
    <path d="M21 4V0M21 42V38M38 21H42M0 21H4M32.8 9.2L36 6M6 36L9.2 32.8M32.8 32.8L36 36M6 6L9.2 9.2" stroke="#F28A1D" stroke-width="3.5" stroke-linecap="round"/>
    <path d="M26.6 22.1C25.7 27.4 18.8 28.8 15.5 24.8C12.1 20.7 15 14.2 20.5 14.7C25.9 15.2 28.1 21.3 23.6 23.6C20.3 25.2 17.6 22.5 18.7 19.9" stroke="#F28A1D" stroke-width="3.3" stroke-linecap="round" fill="none"/>
  </g>
  <text x="1" y="70" fill="#FFFFFF" font-family="Brush Script MT, Segoe Script, Comic Sans MS, cursive" font-size="63" font-weight="700" letter-spacing="-1.5">modhani</text>
</svg>
